<?xml version="1.0" standalone="no"?>
<!DOCTYPE svg PUBLIC "-//W3C//DTD SVG 20010904//EN"
 "http://www.w3.org/TR/2001/REC-SVG-20010904/DTD/svg10.dtd">
<svg version="1.0" xmlns="http://www.w3.org/2000/svg"
 width="600.000000pt" height="600.000000pt" viewBox="0 0 600.000000 600.000000"
 preserveAspectRatio="xMidYMid meet">
<metadata>
Created by potrace 1.11, written by Peter Selinger 2001-2013
</metadata>
<g transform="translate(0.000000,600.000000) scale(0.100000,-0.100000)"
fill="#000000" stroke="none">
<path d="M1735 4690 c-27 -4 -69 -10 -93 -14 -82 -11 -212 -46 -309 -82 -539
-200 -940 -651 -1072 -1206 -43 -180 -49 -244 -46 -433 4 -178 5 -190 31 -320
36 -178 147 -453 230 -566 19 -26 34 -49 34 -53 0 -3 6 -14 14 -23 8 -10 41
-52 74 -93 149 -186 343 -340 573 -453 162 -80 304 -124 519 -162 59 -11 351
-14 425 -5 98 12 127 18 235 46 52 13 102 26 111 29 56 13 264 109 352 163
278 169 523 440 657 727 74 157 95 219 130 385 28 134 32 166 35 320 3 154 -5
257 -31 373 -8 40 -17 83 -20 95 -13 64 -71 219 -119 317 -152 314 -401 578
-706 748 -55 31 -264 127 -272 125 -1 0 -33 9 -72 20 -99 29 -207 51 -300 61
-93 10 -308 11 -380 1z"/>
<path d="M4700 3303 c-61 -22 -133 -98 -160 -170 -55 -144 -21 -340 73 -426
94 -85 248 -96 353 -25 156 104 176 422 37 563 -67 68 -203 94 -303 58z m164
-122 c16 -9 42 -40 59 -69 26 -46 30 -64 30 -130 1 -209 -160 -307 -256 -155
-38 60 -52 145 -35 213 5 19 10 43 13 53 7 32 46 77 83 97 39 20 59 18 106 -9z"/>
<path d="M4104 3254 c-27 -31 -63 -73 -80 -93 -148 -171 -234 -277 -233 -285
0 -6 6 -27 13 -46 l13 -35 159 0 159 0 2 -50 c1 -27 2 -61 2 -75 1 -24 4 -25
64 -25 l62 0 5 75 5 75 45 0 44 0 1 53 1 52 -47 0 -47 0 0 163 c0 89 -1 181
-1 205 l-1 42 -59 0 -59 0 -48 -56z m35 -254 l1 -100 -85 0 c-97 0 -96 -4 -25
80 86 102 102 120 105 120 2 0 4 -45 4 -100z"/>
<path d="M5438 3143 c-78 -93 -148 -174 -155 -181 -7 -8 -24 -28 -38 -46 -23
-31 -24 -35 -12 -77 l13 -44 159 0 160 0 5 -74 5 -75 64 0 64 -1 1 75 1 75 43
-1 c23 -1 43 2 43 5 1 3 2 27 3 54 l1 47 -46 0 -47 0 0 193 c0 105 -1 198 -1
205 -1 8 -20 12 -60 12 l-60 0 -143 -167z m132 -143 l0 -100 -86 0 -85 0 19
28 c11 15 29 36 39 47 10 11 38 44 61 73 24 28 46 52 48 52 2 0 4 -45 4 -100z"/>
</g>
</svg>
